<mxGraphModel>
  <root>
    <mxCell id="0" />
    <mxCell id="readers-0" value="GadgetIsmrmrdAcquisitionMessageReader&#xa;(gadgetron_mricore)" style="fillColor=#d5e8d4;fontStyle=0" parent="0" vertex="1">      <mxGeometry width="300" height="50" as="geometry" />
    </mxCell>
    <mxCell id="readers-1" value="GadgetIsmrmrdWaveformMessageReader&#xa;(gadgetron_mricore)" style="fillColor=#d5e8d4;" parent="0" vertex="1">
      <mxGeometry y="60" width="300" height="50" as="geometry" />
    </mxCell>
    <mxCell id="gadgets-0" value="RemoveROOversampling&#xa;(gadgetron_mricore)" style="fillColor=#fff2cc;" parent="0" vertex="1">
      <mxGeometry y="120" width="300" height="50" as="geometry" />
    </mxCell>
    <mxCell id="gadgets-1" value="RemoveROOversampling&#xa;(gadgetron_mricore)" style="fillColor=#fff2cc;" parent="0" vertex="1">
      <mxGeometry y="180" width="300" height="50" as="geometry" />
    </mxCell>
    <mxCell id="gadgets-2" value="RemoveROOversampling&#xa;(gadgetron_mricore)" style="fillColor=#fff2cc;" parent="0" vertex="1">
      <mxGeometry y="240" width="300" height="50" as="geometry" />
    </mxCell>
    <mxCell id="gadgets-3" value="RemoveROOversampling&#xa;(gadgetron_mricore)" style="fillColor=#fff2cc;" parent="0" vertex="1">
      <mxGeometry y="300" width="300" height="50" as="geometry" />
    </mxCell>
    <mxCell id="gadgets-4" value="RemoveROOversampling&#xa;(gadgetron_mricore)" style="fillColor=#fff2cc;" parent="0" vertex="1">
      <mxGeometry y="360" width="300" height="50" as="geometry" />
    </mxCell>
    <mxCell id="gadgets-5" value="RemoveROOversampling&#xa;(gadgetron_mricore)" style="fillColor=#fff2cc;" parent="0" vertex="1">
      <mxGeometry y="420" width="300" height="50" as="geometry" />
    </mxCell>
    <mxCell id="gadgets-6" value="RemoveROOversampling&#xa;(gadgetron_mricore)" style="fillColor=#fff2cc;" parent="0" vertex="1">
      <mxGeometry y="480" width="300" height="50" as="geometry" />
    </mxCell>
    <mxCell id="writers-0" value="MRIImageWriter&#xa;(gadgetron_mricore)" style="fillColor=#f8cecc;" parent="0" vertex="1">
      <mxGeometry y="540" width="300" height="50" as="geometry" />
    </mxCell>
  </root>
</mxGraphModel>
